{
  "accessors": [
    {
      "bufferView": 2,
      "componentType": 5126,
      "count": 10201,
      "max": [
        300.0,
        21.446195602416992,
        300.0
      ],
      "min": [
        -299.6815490722656,
        -50.417388916015625,
        -299.8863830566406
      ],
      "type": "VEC3"
    },
    {
      "bufferView": 2,
      "byteOffset": 122412,
      "componentType": 5126,
      "count": 10201,
      "max": [
        0.999326229095459,
        1.0,
        0.9332017302513123
      ],
      "min": [
        -0.7370406985282898,
        -0.19789192080497742,
        -0.8762828707695007
      ],
      "type": "VEC3"
    },
    {
      "bufferView": 1,
      "componentType": 5126,
      "count": 10201,
      "max": [
        1.0,
        1.0
      ],
      "min": [
        0.0,
        0.0
      ],
      "type": "VEC2"
    },
    {
      "bufferView": 0,
      "componentType": 5125,
      "count": 60000,
      "type": "SCALAR"
    }
  ],
  "asset": {
    "extras": {
      "author": "Darxkl05 (https://sketchfab.com/Darxkl05)",
      "license": "CC-BY-4.0 (http://creativecommons.org/licenses/by/4.0/)",
      "source": "https://sketchfab.com/3d-models/crumpled-paper-f19ea7ce149c4b25a527abecec1da524",
      "title": "Crumpled paper"
    },
    "generator": "Sketchfab-12.66.0",
    "version": "2.0"
  },
  "bufferViews": [
    {
      "buffer": 0,
      "byteLength": 240000,
      "name": "floatBufferViews",
      "target": 34963
    },
    {
      "buffer": 0,
      "byteLength": 81608,
      "byteOffset": 240000,
      "byteStride": 8,
      "name": "floatBufferViews",
      "target": 34962
    },
    {
      "buffer": 0,
      "byteLength": 244824,
      "byteOffset": 321608,
      "byteStride": 12,
      "name": "floatBufferViews",
      "target": 34962
    }
  ],
  "buffers": [
    {
      "byteLength": 566432,
      "uri": "scene.bin"
    }
  ],
  "materials": [
    {
      "doubleSided": true,
      "name": "material",
      "pbrMetallicRoughness": {
        "baseColorFactor": [
          0.22653400390734113,
          0.22653400390734113,
          0.22653400390734113,
          1.0
        ],
        "metallicFactor": 0.0,
        "roughnessFactor": 0.6636414338985142
      }
    }
  ],
  "meshes": [
    {
      "name": "Paper_PBR_0",
      "primitives": [
        {
          "attributes": {
            "NORMAL": 1,
            "POSITION": 0,
            "TEXCOORD_0": 2
          },
          "indices": 3,
          "material": 0,
          "mode": 4
        }
      ]
    }
  ],
  "nodes": [
    {
      "children": [
        1
      ],
      "matrix": [
        1.0,
        0.0,
        0.0,
        0.0,
        0.0,
        2.220446049250313e-16,
        -1.0,
        0.0,
        0.0,
        1.0,
        2.220446049250313e-16,
        0.0,
        0.0,
        0.0,
        0.0,
        1.0
      ],
      "name": "Sketchfab_model"
    },
    {
      "children": [
        2
      ],
      "matrix": [
        1.0,
        0.0,
        0.0,
        0.0,
        0.0,
        0.0,
        1.0,
        0.0,
        0.0,
        -1.0,
        0.0,
        0.0,
        0.0,
        0.0,
        0.0,
        1.0
      ],
      "name": "822babcd061b48b3a5c05612ee33586c.fbx"
    },
    {
      "children": [
        3
      ],
      "name": "RootNode"
    },
    {
      "children": [
        4
      ],
      "matrix": [
        1.0,
        0.0,
        0.0,
        0.0,
        0.0,
        1.0,
        0.0,
        0.0,
        0.0,
        0.0,
        1.0,
        0.0,
        0.0,
        48.02192687988281,
        0.0,
        1.0
      ],
      "name": "Paper"
    },
    {
      "mesh": 0,
      "name": "Paper_PBR_0"
    }
  ],
  "scene": 0,
  "scenes": [
    {
      "name": "Sketchfab_Scene",
      "nodes": [
        0
      ]
    }
  ]
}
